{
	"asset":{
		"generator":"Khronos glTF Blender I/O v4.5.48",
		"version":"2.0"
	},
	"scene":0,
	"scenes":[
		{
			"name":"Scene",
			"nodes":[
				0,
				1,
				2
			]
		}
	],
	"nodes":[
		{
			"name":"Collection"
		},
		{
			"mesh":0,
			"name":"Cube",
			"scale":[
				0.19987529516220093,
				0.12802904844284058,
				2.0166754722595215
			],
			"translation":[
				0,
				0.20087666809558868,
				-0.0606258325278759
			]
		},
		{
			"mesh":1,
			"name":"Cube.004",
			"scale":[
				0.16142868995666504,
				3.2475249767303467,
				1.67476224899292
			],
			"translation":[
				0.04593789577484131,
				3.7800395488739014,
				1.995285153388977
			]
		}
	],
	"meshes":[
		{
			"name":"Cube.001",
			"primitives":[
				{
					"attributes":{
						"POSITION":0,
						"NORMAL":1,
						"TEXCOORD_0":2
					},
					"indices":3
				}
			]
		},
		{
			"name":"Cube.005",
			"primitives":[
				{
					"attributes":{
						"POSITION":4,
						"NORMAL":5,
						"TEXCOORD_0":6
					},
					"indices":7
				}
			]
		}
	],
	"accessors":[
		{
			"bufferView":0,
			"componentType":5126,
			"count":96,
			"max":[
				1,
				53.50076675415039,
				1.0305025577545166
			],
			"min":[
				-1,
				-1.032388687133789,
				-1
			],
			"type":"VEC3"
		},
		{
			"bufferView":1,
			"componentType":5126,
			"count":96,
			"type":"VEC3"
		},
		{
			"bufferView":2,
			"componentType":5126,
			"count":96,
			"type":"VEC2"
		},
		{
			"bufferView":3,
			"componentType":5123,
			"count":144,
			"type":"SCALAR"
		},
		{
			"bufferView":4,
			"componentType":5126,
			"count":3992,
			"max":[
				3.0434179306030273,
				0.9036028385162354,
				-0.19138413667678833
			],
			"min":[
				-3.4531478881835938,
				-1.0963971614837646,
				-2.1913840770721436
			],
			"type":"VEC3"
		},
		{
			"bufferView":5,
			"componentType":5126,
			"count":3992,
			"type":"VEC3"
		},
		{
			"bufferView":6,
			"componentType":5126,
			"count":3992,
			"type":"VEC2"
		},
		{
			"bufferView":7,
			"componentType":5123,
			"count":5796,
			"type":"SCALAR"
		}
	],
	"bufferViews":[
		{
			"buffer":0,
			"byteLength":1152,
			"byteOffset":0,
			"target":34962
		},
		{
			"buffer":0,
			"byteLength":1152,
			"byteOffset":1152,
			"target":34962
		},
		{
			"buffer":0,
			"byteLength":768,
			"byteOffset":2304,
			"target":34962
		},
		{
			"buffer":0,
			"byteLength":288,
			"byteOffset":3072,
			"target":34963
		},
		{
			"buffer":0,
			"byteLength":47904,
			"byteOffset":3360,
			"target":34962
		},
		{
			"buffer":0,
			"byteLength":47904,
			"byteOffset":51264,
			"target":34962
		},
		{
			"buffer":0,
			"byteLength":31936,
			"byteOffset":99168,
			"target":34962
		},
		{
			"buffer":0,
			"byteLength":11592,
			"byteOffset":131104,
			"target":34963
		}
	],
	"buffers":[
		{
			"byteLength":142696,
			"uri":"door.bin"
		}
	]
}
